<svg width="506" height="210" viewBox="0 0 506 210" fill="none" xmlns="http://www.w3.org/2000/svg">
<path d="M106.263 18.71H122.118V79.085H153.618V92L147.618 98H100.263V24.71L106.263 18.71Z" fill="#20D77F"/>
<path d="M167.962 18.71H214.792V31.625L208.792 37.625H183.712V48.425H213.742V61.34L207.742 67.34H183.712V79.085H214.792V92L208.792 98H161.962V24.71L167.962 18.71Z" fill="#20D77F"/>
<path d="M259.151 98H236.891L217.466 24.71L223.466 18.71H241.001L249.611 55.985L251.986 67.6303L253.166 61.985L261.881 24.71L267.881 18.71H284.576L265.151 92L259.151 98Z" fill="#20D77F"/>
<path d="M293.879 18.71H340.71V31.625L334.71 37.625H309.629V48.425H339.659V61.34L333.659 67.34H309.629V79.085H340.71V92L334.71 98H287.879V24.71L293.879 18.71Z" fill="#20D77F"/>
<path d="M399.453 98H352.098V24.71L358.098 18.71H373.953V79.085H405.453V92L399.453 98Z" fill="#20D77F"/>
<path d="M61.2381 143.555C60.468 140.335 59.3831 137.43 57.983 134.84C56.653 132.25 54.938 130.045 52.838 128.225C50.738 126.405 48.218 125.005 45.278 124.025C42.4081 122.975 39.0831 122.45 35.3031 122.45C23.8354 122.45 13.9679 129.337 7.46304 138.425C2.77304 145.005 0.428047 154.315 0.428047 166.355C0.428047 178.395 2.77304 187.74 7.46304 194.39C12.223 200.97 19.5031 204.26 29.3031 204.26C33.0831 204.26 36.4081 203.77 39.278 202.79C42.218 201.81 44.738 200.41 46.838 198.59C48.9886 196.655 50.6606 194.477 52.838 192.59C54.938 190.7 56.653 188.46 57.983 185.87C59.3831 183.28 60.468 180.375 61.2381 177.155L46.538 173.585L40.538 179.585C40.0895 181.624 39.4865 183.449 38.729 185.061C37.6314 185.39 36.3844 185.555 34.9881 185.555C30.718 185.555 27.673 183.91 25.853 180.62C24.103 177.26 23.228 172.64 23.228 166.76V153.95C23.228 148.923 23.8676 144.842 25.1467 141.708C26.2927 141.34 27.5731 141.155 28.9881 141.155C30.808 141.155 32.3481 141.47 33.608 142.1C34.938 142.66 36.0231 143.465 36.8631 144.515C37.7731 145.565 38.5081 146.825 39.0681 148.295C39.6281 149.765 40.118 151.375 40.538 153.125L55.2381 149.555L61.2381 143.555Z" fill="#20D77F"/>
<path fill-rule="evenodd" clip-rule="evenodd" d="M96.582 122.45C106.382 122.45 113.592 125.775 118.212 132.425C122.902 139.075 125.247 148.385 125.247 160.355C125.247 172.325 122.902 181.635 118.212 188.285C111.891 197.384 101.904 204.26 90.582 204.26C80.782 204.26 73.537 200.935 68.847 194.285C64.227 187.635 61.917 178.325 61.917 166.355C61.917 154.385 64.227 145.075 68.847 138.425C75.2699 129.318 85.1618 122.45 96.582 122.45ZM100.551 185.02C99.3793 185.377 98.0565 185.555 96.582 185.555C92.102 185.555 88.987 183.91 87.237 180.62C85.557 177.26 84.717 172.64 84.717 166.76V153.95C84.717 148.927 85.3301 144.848 86.5563 141.715C87.7465 141.342 89.0884 141.155 90.582 141.155C95.062 141.155 98.142 142.835 99.822 146.195C101.572 149.485 102.447 154.07 102.447 159.95V172.655C102.447 177.712 101.815 181.834 100.551 185.02Z" fill="#20D77F"/>
<path d="M126.136 129.71V203H139.786L145.786 197V166.149L153.541 187.565L159.541 181.565L167.768 158.847L167.296 170.345V203H180.946L186.946 197V123.71H169.621L163.621 129.71L158.269 144.335L150.721 123.71H132.136L126.136 129.71Z" fill="#20D77F"/>
<path fill-rule="evenodd" clip-rule="evenodd" d="M227.33 123.71H198.98L192.98 129.71V203H208.835L214.835 197V176.33H221.33C224.9 176.33 228.085 175.805 230.885 174.755C233.685 173.635 236.03 172.06 237.92 170.03C239.904 167.976 241.975 166.119 243.92 164.03C245.88 162 247.35 159.55 248.33 156.68C249.31 153.81 249.8 150.59 249.8 147.02C249.8 143.45 249.31 140.23 248.33 137.36C247.35 134.49 245.88 132.04 243.92 130.01C242.03 127.98 239.685 126.44 236.885 125.39C234.085 124.27 230.9 123.71 227.33 123.71ZM223.34 157.625H214.835V142.415H217.34C221.05 142.415 223.605 143.115 225.005 144.515C226.475 145.915 227.21 148.225 227.21 151.445V154.595C227.21 155.596 227.139 156.51 226.997 157.335C225.937 157.528 224.718 157.625 223.34 157.625Z" fill="#20D77F"/>
<path d="M263.619 123.71H279.474V184.085H310.974V197L304.974 203H257.619V129.71L263.619 123.71Z" fill="#20D77F"/>
<path d="M372.148 123.71H325.318L319.318 129.71V203H366.148L372.148 197V184.085H341.068V172.34H365.098L371.098 166.34V153.425H341.068V142.625H366.148L372.148 136.625V123.71Z" fill="#20D77F"/>
<path d="M419.252 142.625V197L413.252 203H397.502V142.625H376.397V129.71L382.397 123.71H440.357V136.625L434.357 142.625H419.252Z" fill="#20D77F"/>
<path d="M498.066 123.71H451.236L445.236 129.71V203H492.066L498.066 197V184.085H466.986V172.34H491.016L497.016 166.34V153.425H466.986V142.625H492.066L498.066 136.625V123.71Z" fill="#20D77F"/>
<path d="M106.263 92V18.71H122.118V79.085H153.618V92H106.263ZM167.962 92V18.71H214.792V31.625H183.712V48.425H213.742V61.34H183.712V79.085H214.792V92H167.962ZM242.891 92L223.466 18.71H241.001L249.611 55.985L253.916 77.09H254.756L259.166 55.985L267.881 18.71H284.576L265.151 92H242.891ZM293.879 92V18.71H340.709V31.625H309.629V48.425H339.659V61.34H309.629V79.085H340.709V92H293.879ZM358.098 92V18.71H373.953V79.085H405.453V92H358.098ZM35.3441 198.26C25.5441 198.26 18.2641 194.97 13.5041 188.39C8.81406 181.74 6.46906 172.395 6.46906 160.355C6.46906 148.315 8.81406 139.005 13.5041 132.425C18.2641 125.775 25.5441 122.45 35.3441 122.45C39.1241 122.45 42.4491 122.975 45.3191 124.025C48.2591 125.005 50.7791 126.405 52.8791 128.225C54.9791 130.045 56.6941 132.25 58.0241 134.84C59.4241 137.43 60.5091 140.335 61.2791 143.555L46.5791 147.125C46.1591 145.375 45.6691 143.765 45.1091 142.295C44.5491 140.825 43.8141 139.565 42.9041 138.515C42.0641 137.465 40.9791 136.66 39.6491 136.1C38.3891 135.47 36.8491 135.155 35.0291 135.155C30.7591 135.155 27.7141 136.835 25.8941 140.195C24.1441 143.485 23.2691 148.07 23.2691 153.95V166.76C23.2691 172.64 24.1441 177.26 25.8941 180.62C27.7141 183.91 30.7591 185.555 35.0291 185.555C38.6691 185.555 41.2941 184.435 42.9041 182.195C44.5841 179.955 45.8091 177.085 46.5791 173.585L61.2791 177.155C60.5091 180.375 59.4241 183.28 58.0241 185.87C56.6941 188.46 54.9791 190.7 52.8791 192.59C50.7791 194.41 48.2591 195.81 45.3191 196.79C42.4491 197.77 39.1241 198.26 35.3441 198.26ZM96.623 198.26C86.823 198.26 79.578 194.935 74.888 188.285C70.268 181.635 67.958 172.325 67.958 160.355C67.958 148.385 70.268 139.075 74.888 132.425C79.578 125.775 86.823 122.45 96.623 122.45C106.423 122.45 113.633 125.775 118.253 132.425C122.943 139.075 125.288 148.385 125.288 160.355C125.288 172.325 122.943 181.635 118.253 188.285C113.633 194.935 106.423 198.26 96.623 198.26ZM96.623 185.555C101.103 185.555 104.183 183.91 105.863 180.62C107.613 177.26 108.488 172.605 108.488 166.655V153.95C108.488 148.07 107.613 143.485 105.863 140.195C104.183 136.835 101.103 135.155 96.623 135.155C92.143 135.155 89.028 136.835 87.278 140.195C85.598 143.485 84.758 148.07 84.758 153.95V166.76C84.758 172.64 85.598 177.26 87.278 180.62C89.028 183.91 92.143 185.555 96.623 185.555ZM173.337 164.345L174.177 143.87H173.232L159.582 181.565L145.932 143.87H144.987L145.827 164.345V197H132.177V123.71H150.762L159.792 148.385H160.632L169.662 123.71H186.987V197H173.337V164.345ZM199.021 197V123.71H227.371C230.941 123.71 234.126 124.27 236.926 125.39C239.726 126.44 242.071 127.98 243.961 130.01C245.921 132.04 247.391 134.49 248.371 137.36C249.351 140.23 249.841 143.45 249.841 147.02C249.841 150.59 249.351 153.81 248.371 156.68C247.391 159.55 245.921 162 243.961 164.03C242.071 166.06 239.726 167.635 236.926 168.755C234.126 169.805 230.941 170.33 227.371 170.33H214.876V197H199.021ZM214.876 157.625H223.381C227.091 157.625 229.646 156.925 231.046 155.525C232.516 154.125 233.251 151.815 233.251 148.595V145.445C233.251 142.225 232.516 139.915 231.046 138.515C229.646 137.115 227.091 136.415 223.381 136.415H214.876V157.625ZM263.66 197V123.71H279.515V184.085H311.015V197H263.66ZM325.359 197V123.71H372.189V136.625H341.109V153.425H371.139V166.34H341.109V184.085H372.189V197H325.359ZM419.293 136.625V197H403.543V136.625H382.438V123.71H440.398V136.625H419.293ZM451.277 197V123.71H498.107V136.625H467.027V153.425H497.057V166.34H467.027V184.085H498.107V197H451.277Z" fill="white"/>
</svg>
