<svg width="630" height="210" viewBox="0 0 630 210" fill="none" xmlns="http://www.w3.org/2000/svg">
<path d="M167.263 18.71H183.118V79.085H214.618V92L208.618 98H161.263V24.71L167.263 18.71Z" fill="#D7A420"/>
<path d="M228.962 18.71H275.792V31.625L269.792 37.625H244.712V48.425H274.742V61.34L268.742 67.34H244.712V79.085H275.792V92L269.792 98H222.962V24.71L228.962 18.71Z" fill="#D7A420"/>
<path d="M320.151 98H297.891L278.466 24.71L284.466 18.71H302.001L310.611 55.985L312.986 67.6303L314.165 61.985L322.881 24.71L328.881 18.71H345.576L326.151 92L320.151 98Z" fill="#D7A420"/>
<path d="M354.879 18.71H401.71V31.625L395.71 37.625H370.629V48.425H400.659V61.34L394.659 67.34H370.629V79.085H401.71V92L395.71 98H348.879V24.71L354.879 18.71Z" fill="#D7A420"/>
<path d="M460.453 98H413.098V24.71L419.098 18.71H434.953V79.085H466.453V92L460.453 98Z" fill="#D7A420"/>
<path d="M8.08008 185.345H17.8301V141.365H2.08008V129.71L8.08008 123.71H55.3301V135.365L49.3301 141.365H39.5801V185.345H55.3301V197L49.3301 203H2.08008V191.345L8.08008 185.345Z" fill="#D7A420"/>
<path d="M113.759 203H94.8591L83.0091 168.419V197L77.0091 203H63.5691V129.71L69.5691 123.71H88.4691L100.319 158.291V129.71L106.319 123.71H119.759V197L113.759 203Z" fill="#D7A420"/>
<path d="M185.238 143.555C184.468 140.335 183.383 137.43 181.983 134.84C180.653 132.25 178.938 130.045 176.838 128.225C174.738 126.405 172.218 125.005 169.278 124.025C166.408 122.975 163.083 122.45 159.303 122.45C147.835 122.45 137.968 129.337 131.463 138.425C126.773 145.005 124.428 154.315 124.428 166.355C124.428 178.395 126.773 187.74 131.463 194.39C136.223 200.97 143.503 204.26 153.303 204.26C157.083 204.26 160.408 203.77 163.278 202.79C166.218 201.81 168.738 200.41 170.838 198.59C172.989 196.655 174.661 194.477 176.838 192.59C178.938 190.7 180.653 188.46 181.983 185.87C183.383 183.28 184.468 180.375 185.238 177.155L170.538 173.585L164.538 179.585C164.089 181.624 163.486 183.449 162.729 185.061C161.631 185.39 160.384 185.555 158.988 185.555C154.718 185.555 151.673 183.91 149.853 180.62C148.103 177.26 147.228 172.64 147.228 166.76V153.95C147.228 148.923 147.868 144.842 149.147 141.708C150.293 141.34 151.573 141.155 152.988 141.155C154.808 141.155 156.348 141.47 157.608 142.1C158.938 142.66 160.023 143.465 160.863 144.515C161.773 145.565 162.508 146.825 163.068 148.295C163.628 149.765 164.118 151.375 164.538 153.125L179.238 149.555L185.238 143.555Z" fill="#D7A420"/>
<path fill-rule="evenodd" clip-rule="evenodd" d="M220.582 122.45C230.382 122.45 237.592 125.775 242.212 132.425C246.902 139.075 249.247 148.385 249.247 160.355C249.247 172.325 246.902 181.635 242.212 188.285C235.891 197.384 225.904 204.26 214.582 204.26C204.782 204.26 197.537 200.935 192.847 194.285C188.227 187.635 185.917 178.325 185.917 166.355C185.917 154.385 188.227 145.075 192.847 138.425C199.27 129.318 209.162 122.45 220.582 122.45ZM224.551 185.02C223.379 185.377 222.057 185.555 220.582 185.555C216.102 185.555 212.987 183.91 211.237 180.62C209.557 177.26 208.717 172.64 208.717 166.76V153.95C208.717 148.927 209.33 144.848 210.556 141.715C211.747 141.342 213.088 141.155 214.582 141.155C219.062 141.155 222.142 142.835 223.822 146.195C225.572 149.485 226.447 154.07 226.447 159.95V172.655C226.447 177.712 225.815 181.834 224.551 185.02Z" fill="#D7A420"/>
<path d="M250.136 129.71V203H263.786L269.786 197V166.149L277.541 187.565L283.541 181.565L291.768 158.847L291.296 170.345V203H304.946L310.946 197V123.71H293.621L287.621 129.71L282.269 144.335L274.721 123.71H256.136L250.136 129.71Z" fill="#D7A420"/>
<path fill-rule="evenodd" clip-rule="evenodd" d="M351.33 123.71H322.98L316.98 129.71V203H332.835L338.835 197V176.33H345.33C348.9 176.33 352.085 175.805 354.885 174.755C357.685 173.635 360.03 172.06 361.92 170.03C363.904 167.976 365.975 166.119 367.92 164.03C369.88 162 371.35 159.55 372.33 156.68C373.31 153.81 373.8 150.59 373.8 147.02C373.8 143.45 373.31 140.23 372.33 137.36C371.35 134.49 369.88 132.04 367.92 130.01C366.03 127.98 363.685 126.44 360.885 125.39C358.085 124.27 354.9 123.71 351.33 123.71ZM347.34 157.625H338.835V142.415H341.34C345.05 142.415 347.605 143.115 349.005 144.515C350.475 145.915 351.21 148.225 351.21 151.445V154.595C351.21 155.596 351.139 156.51 350.997 157.335C349.937 157.528 348.718 157.625 347.34 157.625Z" fill="#D7A420"/>
<path d="M387.619 123.71H403.474V184.085H434.974V197L428.974 203H381.619V129.71L387.619 123.71Z" fill="#D7A420"/>
<path d="M496.148 123.71H449.318L443.318 129.71V203H490.148L496.148 197V184.085H465.068V172.34H489.098L495.098 166.34V153.425H465.068V142.625H490.148L496.148 136.625V123.71Z" fill="#D7A420"/>
<path d="M543.252 142.625V197L537.252 203H521.502V142.625H500.397V129.71L506.397 123.71H564.357V136.625L558.357 142.625H543.252Z" fill="#D7A420"/>
<path d="M622.066 123.71H575.236L569.236 129.71V203H616.066L622.066 197V184.085H590.986V172.34H615.016L621.016 166.34V153.425H590.986V142.625H616.066L622.066 136.625V123.71Z" fill="#D7A420"/>
<path d="M167.263 92V18.71H183.118V79.085H214.618V92H167.263ZM228.962 92V18.71H275.792V31.625H244.712V48.425H274.742V61.34H244.712V79.085H275.792V92H228.962ZM303.891 92L284.466 18.71H302.001L310.611 55.985L314.916 77.09H315.756L320.166 55.985L328.881 18.71H345.576L326.151 92H303.891ZM354.879 92V18.71H401.709V31.625H370.629V48.425H400.659V61.34H370.629V79.085H401.709V92H354.879ZM419.098 92V18.71H434.953V79.085H466.453V92H419.098ZM8.08008 197V185.345H23.8301V135.365H8.08008V123.71H55.3301V135.365H39.5801V185.345H55.3301V197H8.08008ZM84.1641 148.28H83.0091V197H69.5691V123.71H88.4691L105.164 172.43H106.319V123.71H119.759V197H100.859L84.1641 148.28ZM159.303 198.26C149.503 198.26 142.223 194.97 137.463 188.39C132.773 181.74 130.428 172.395 130.428 160.355C130.428 148.315 132.773 139.005 137.463 132.425C142.223 125.775 149.503 122.45 159.303 122.45C163.083 122.45 166.408 122.975 169.278 124.025C172.218 125.005 174.738 126.405 176.838 128.225C178.938 130.045 180.653 132.25 181.983 134.84C183.383 137.43 184.468 140.335 185.238 143.555L170.538 147.125C170.118 145.375 169.628 143.765 169.068 142.295C168.508 140.825 167.773 139.565 166.863 138.515C166.023 137.465 164.938 136.66 163.608 136.1C162.348 135.47 160.808 135.155 158.988 135.155C154.718 135.155 151.673 136.835 149.853 140.195C148.103 143.485 147.228 148.07 147.228 153.95V166.76C147.228 172.64 148.103 177.26 149.853 180.62C151.673 183.91 154.718 185.555 158.988 185.555C162.628 185.555 165.253 184.435 166.863 182.195C168.543 179.955 169.768 177.085 170.538 173.585L185.238 177.155C184.468 180.375 183.383 183.28 181.983 185.87C180.653 188.46 178.938 190.7 176.838 192.59C174.738 194.41 172.218 195.81 169.278 196.79C166.408 197.77 163.083 198.26 159.303 198.26ZM220.582 198.26C210.782 198.26 203.537 194.935 198.847 188.285C194.227 181.635 191.917 172.325 191.917 160.355C191.917 148.385 194.227 139.075 198.847 132.425C203.537 125.775 210.782 122.45 220.582 122.45C230.382 122.45 237.592 125.775 242.212 132.425C246.902 139.075 249.247 148.385 249.247 160.355C249.247 172.325 246.902 181.635 242.212 188.285C237.592 194.935 230.382 198.26 220.582 198.26ZM220.582 185.555C225.062 185.555 228.142 183.91 229.822 180.62C231.572 177.26 232.447 172.605 232.447 166.655V153.95C232.447 148.07 231.572 143.485 229.822 140.195C228.142 136.835 225.062 135.155 220.582 135.155C216.102 135.155 212.987 136.835 211.237 140.195C209.557 143.485 208.717 148.07 208.717 153.95V166.76C208.717 172.64 209.557 177.26 211.237 180.62C212.987 183.91 216.102 185.555 220.582 185.555ZM297.296 164.345L298.136 143.87H297.191L283.541 181.565L269.891 143.87H268.946L269.786 164.345V197H256.136V123.71H274.721L283.751 148.385H284.591L293.621 123.71H310.946V197H297.296V164.345ZM322.98 197V123.71H351.33C354.9 123.71 358.085 124.27 360.885 125.39C363.685 126.44 366.03 127.98 367.92 130.01C369.88 132.04 371.35 134.49 372.33 137.36C373.31 140.23 373.8 143.45 373.8 147.02C373.8 150.59 373.31 153.81 372.33 156.68C371.35 159.55 369.88 162 367.92 164.03C366.03 166.06 363.685 167.635 360.885 168.755C358.085 169.805 354.9 170.33 351.33 170.33H338.835V197H322.98ZM338.835 157.625H347.34C351.05 157.625 353.605 156.925 355.005 155.525C356.475 154.125 357.21 151.815 357.21 148.595V145.445C357.21 142.225 356.475 139.915 355.005 138.515C353.605 137.115 351.05 136.415 347.34 136.415H338.835V157.625ZM387.619 197V123.71H403.474V184.085H434.974V197H387.619ZM449.318 197V123.71H496.148V136.625H465.068V153.425H495.098V166.34H465.068V184.085H496.148V197H449.318ZM543.252 136.625V197H527.502V136.625H506.397V123.71H564.357V136.625H543.252ZM575.236 197V123.71H622.066V136.625H590.986V153.425H621.016V166.34H590.986V184.085H622.066V197H575.236Z" fill="white"/>
</svg>
