<svg width="385" height="140" viewBox="0 0 385 140" fill="none" xmlns="http://www.w3.org/2000/svg">
<g clip-path="url(#clip0)">
<path d="M315.951 50.555C315.181 47.335 314.096 44.43 312.696 41.84C311.366 39.25 309.651 37.045 307.551 35.225C305.451 33.405 302.931 32.005 299.991 31.025C297.121 29.975 293.796 29.45 290.016 29.45C279.097 29.45 268.533 36.5444 262.176 45.425C257.486 52.005 255.141 61.315 255.141 73.355C255.141 85.395 257.486 94.74 262.176 101.39C266.936 107.97 274.216 111.26 284.016 111.26C287.796 111.26 291.121 110.77 293.991 109.79C296.931 108.81 299.451 107.41 301.551 105.59C303.701 103.655 305.373 101.477 307.551 99.59C309.651 97.7 311.366 95.46 312.696 92.87C314.096 90.28 315.181 87.375 315.951 84.155L301.251 80.585L295.251 86.585C294.802 88.624 294.199 90.4492 293.442 92.0605C292.344 92.3902 291.097 92.555 289.701 92.555C285.431 92.555 282.386 90.91 280.566 87.62C278.816 84.26 277.941 79.64 277.941 73.76V60.95C277.941 55.9229 278.58 51.8424 279.86 48.7084C281.006 48.3395 282.286 48.155 283.701 48.155C285.521 48.155 287.061 48.47 288.321 49.1C289.651 49.66 290.736 50.465 291.576 51.515C292.486 52.565 293.221 53.825 293.781 55.295C294.341 56.765 294.831 58.375 295.251 60.125L309.951 56.555L315.951 50.555Z" fill="#77C8EA"/>
<path fill-rule="evenodd" clip-rule="evenodd" d="M28.52 104V82.805H29.765L42.05 110H59.27L65.27 104L51.8532 76.6767C54.5612 73.984 58.577 70.4406 60.44 67.355C62.68 63.645 63.8 59.2 63.8 54.02C63.8 50.45 63.31 47.23 62.33 44.36C61.35 41.49 59.88 39.04 57.92 37.01C56.03 34.98 53.685 33.44 50.885 32.39C48.085 31.27 44.9 30.71 41.33 30.71H12.98L6.98 36.71V110H22.52L28.52 104ZM41.2067 64.3351C40.1473 64.5284 38.9283 64.625 37.55 64.625H28.52V49.415H31.55C35.26 49.415 37.815 50.115 39.215 51.515C40.685 52.915 41.42 55.225 41.42 58.445V61.595C41.42 62.5964 41.3489 63.5098 41.2067 64.3351Z" fill="#77C8EA"/>
<path d="M123.189 30.71H76.359L70.359 36.71V110H117.189L123.189 104V91.085H92.109V79.34H116.139L122.139 73.34V60.425H92.109V49.625H117.189L123.189 43.625V30.71Z" fill="#77C8EA"/>
<path fill-rule="evenodd" clip-rule="evenodd" d="M137.638 30.71H161.263C171.133 30.71 178.448 33.86 183.208 40.16C187.968 46.46 190.348 55.525 190.348 67.355C190.348 79.185 187.968 88.25 183.208 94.55C176.382 103.584 166.875 110 155.263 110H131.638V36.71L137.638 30.71ZM165.897 90.6502C164.27 91.2901 162.375 91.61 160.213 91.61H153.178V49.1H154.213C158.903 49.1 162.333 50.605 164.503 53.615C166.673 56.625 167.758 60.965 167.758 66.635V79.97C167.758 84.3106 167.138 87.8707 165.897 90.6502Z" fill="#77C8EA"/>
<path d="M215.402 77.12V30.71H199.652L193.652 36.71V81.02C193.652 86.06 193.967 90.47 194.597 94.25C195.297 98.03 196.592 101.18 198.482 103.7C200.372 106.22 202.997 108.11 206.357 109.37C209.717 110.63 214.057 111.26 219.377 111.26C224.697 111.26 229.037 110.63 232.397 109.37C237.545 107.439 242.981 102.089 246.272 97.7C248.162 95.18 249.422 92.03 250.052 88.25C250.752 84.47 251.102 80.06 251.102 75.02V30.71H235.352L229.352 36.71V83.12C229.352 85.43 229.247 87.565 229.037 89.525C228.963 90.5175 228.813 91.4327 228.585 92.2707C227.648 92.4602 226.579 92.555 225.377 92.555C223.067 92.555 221.247 92.205 219.917 91.505C218.587 90.735 217.572 89.685 216.872 88.355C216.242 87.025 215.822 85.415 215.612 83.525C215.472 81.565 215.402 79.43 215.402 77.12Z" fill="#77C8EA"/>
<path d="M374.275 49.625H359.17V104L353.17 110H337.42V49.625H316.315V36.71L322.315 30.71H380.275V43.625L374.275 49.625Z" fill="#77C8EA"/>
<path d="M28.52 104H12.98V30.71H41.33C44.9 30.71 48.085 31.27 50.885 32.39C53.685 33.44 56.03 34.98 57.92 37.01C59.88 39.04 61.35 41.49 62.33 44.36C63.31 47.23 63.8 50.45 63.8 54.02C63.8 59.2 62.68 63.645 60.44 67.355C58.2 71.065 55.015 73.515 50.885 74.705L65.27 104H48.05L35.765 76.805H28.52V104ZM37.55 64.625C41.26 64.625 43.815 63.925 45.215 62.525C46.685 61.125 47.42 58.815 47.42 55.595V52.445C47.42 49.225 46.685 46.915 45.215 45.515C43.815 44.115 41.26 43.415 37.55 43.415H28.52V64.625H37.55ZM76.359 104V30.71H123.189V43.625H92.109V60.425H122.139V73.34H92.109V91.085H123.189V104H76.359ZM137.638 30.71H161.263C171.133 30.71 178.448 33.86 183.208 40.16C187.968 46.46 190.348 55.525 190.348 67.355C190.348 79.185 187.968 88.25 183.208 94.55C178.448 100.85 171.133 104 161.263 104H137.638V30.71ZM160.213 91.61C164.903 91.61 168.333 90.105 170.503 87.095C172.673 84.085 173.758 79.71 173.758 73.97V60.635C173.758 54.965 172.673 50.625 170.503 47.615C168.333 44.605 164.903 43.1 160.213 43.1H153.178V91.61H160.213ZM215.402 30.71V77.12C215.402 79.43 215.472 81.565 215.612 83.525C215.822 85.415 216.242 87.025 216.872 88.355C217.572 89.685 218.587 90.735 219.917 91.505C221.247 92.205 223.067 92.555 225.377 92.555C227.687 92.555 229.507 92.205 230.837 91.505C232.167 90.735 233.147 89.685 233.777 88.355C234.477 87.025 234.897 85.415 235.037 83.525C235.247 81.565 235.352 79.43 235.352 77.12V30.71H251.102V75.02C251.102 80.06 250.752 84.47 250.052 88.25C249.422 92.03 248.162 95.18 246.272 97.7C244.382 100.22 241.757 102.11 238.397 103.37C235.037 104.63 230.697 105.26 225.377 105.26C220.057 105.26 215.717 104.63 212.357 103.37C208.997 102.11 206.372 100.22 204.482 97.7C202.592 95.18 201.297 92.03 200.597 88.25C199.967 84.47 199.652 80.06 199.652 75.02V30.71H215.402ZM290.016 105.26C280.216 105.26 272.936 101.97 268.176 95.39C263.486 88.74 261.141 79.395 261.141 67.355C261.141 55.315 263.486 46.005 268.176 39.425C272.936 32.775 280.216 29.45 290.016 29.45C293.796 29.45 297.121 29.975 299.991 31.025C302.931 32.005 305.451 33.405 307.551 35.225C309.651 37.045 311.366 39.25 312.696 41.84C314.096 44.43 315.181 47.335 315.951 50.555L301.251 54.125C300.831 52.375 300.341 50.765 299.781 49.295C299.221 47.825 298.486 46.565 297.576 45.515C296.736 44.465 295.651 43.66 294.321 43.1C293.061 42.47 291.521 42.155 289.701 42.155C285.431 42.155 282.386 43.835 280.566 47.195C278.816 50.485 277.941 55.07 277.941 60.95V73.76C277.941 79.64 278.816 84.26 280.566 87.62C282.386 90.91 285.431 92.555 289.701 92.555C293.341 92.555 295.966 91.435 297.576 89.195C299.256 86.955 300.481 84.085 301.251 80.585L315.951 84.155C315.181 87.375 314.096 90.28 312.696 92.87C311.366 95.46 309.651 97.7 307.551 99.59C305.451 101.41 302.931 102.81 299.991 103.79C297.121 104.77 293.796 105.26 290.016 105.26ZM359.17 43.625V104H343.42V43.625H322.315V30.71H380.275V43.625H359.17Z" fill="black"/>
</g>
<defs>
<clipPath id="clip0">
<rect width="385" height="140" fill="white"/>
</clipPath>
</defs>
</svg>
