<svg width="382" height="210" viewBox="0 0 382 210" fill="none" xmlns="http://www.w3.org/2000/svg">
<path d="M281.999 14.3H301.949L287.459 48.53L281.459 54.53H270.014L275.999 20.3L281.999 14.3Z" fill="#F156FF"/>
<path d="M58.603 37.625H43.498V92L37.498 98H21.748V37.625H0.643044V24.71L6.64304 18.71H64.603V31.625L58.603 37.625Z" fill="#F156FF"/>
<path d="M116.207 98H68.957V86.345L74.957 80.345H84.707V36.365H68.957V24.71L74.957 18.71H122.207V30.365L116.207 36.365H106.457V80.345H122.207V92L116.207 98Z" fill="#F156FF"/>
<path d="M128.136 24.71V98H141.786L147.786 92V61.1493L155.541 82.565L161.541 76.565L169.768 53.8465L169.296 65.345V98H182.946L188.946 92V18.71H171.621L165.621 24.71L160.269 39.335L152.721 18.71H134.136L128.136 24.71Z" fill="#F156FF"/>
<path d="M242.23 98H195.4V24.71L201.4 18.71H248.23V31.625L242.23 37.625H217.15V48.425H247.18V61.34L241.18 67.34H217.15V79.085H248.23V92L242.23 98Z" fill="#F156FF"/>
<path d="M341.169 36.7427C341.035 37.4319 340.968 38.176 340.968 38.975C340.968 41.495 341.738 43.385 343.278 44.645C344.888 45.905 347.478 46.85 351.048 47.48L358.713 48.845C364.663 49.895 369.248 52.135 372.468 55.565C375.688 58.995 377.298 63.615 377.298 69.425C377.298 72.855 376.703 76.04 375.513 78.98C374.323 81.85 372.538 84.37 370.158 86.54C369.393 87.2146 368.571 87.8423 367.691 88.4231C366.712 89.9125 365.535 91.2848 364.158 92.54C361.778 94.64 358.838 96.285 355.338 97.475C351.908 98.665 347.883 99.26 343.263 99.26C337.103 99.26 331.748 98.245 327.198 96.215C322.648 94.185 318.973 91.42 316.173 87.92L325.308 77.84L331.308 71.84C333.968 74.78 336.873 76.95 340.023 78.35C343.243 79.75 346.498 80.45 349.788 80.45C351.763 80.45 353.489 80.2207 354.967 79.7621C355.214 78.8291 355.338 77.8034 355.338 76.685C355.338 74.095 354.568 72.135 353.028 70.805C351.558 69.475 349.038 68.53 345.468 67.97L337.803 66.71C331.223 65.59 326.463 63.175 323.523 59.465C320.583 55.685 319.113 51.1 319.113 45.71C319.113 38.64 321.423 33.18 326.043 29.33L332.043 23.33C336.663 19.41 343.138 17.45 351.468 17.45C357.138 17.45 362.073 18.325 366.273 20.075C370.473 21.825 373.868 24.205 376.458 27.215L367.533 37.19L361.533 43.19C359.573 41.02 357.263 39.34 354.603 38.15C351.943 36.89 348.933 36.26 345.573 36.26C343.909 36.26 342.441 36.4209 341.169 36.7427Z" fill="#F156FF"/>
<path d="M151.566 123.71V170.12C151.566 172.43 151.636 174.565 151.776 176.525C151.986 178.415 152.406 180.025 153.036 181.355C153.736 182.685 154.751 183.735 156.081 184.505C157.411 185.205 159.231 185.555 161.541 185.555C162.743 185.555 163.812 185.46 164.749 185.271C164.977 184.433 165.127 183.517 165.201 182.525C165.411 180.565 165.516 178.43 165.516 176.12V129.71L171.516 123.71H187.266V168.02C187.266 173.06 186.916 177.47 186.216 181.25C185.586 185.03 184.326 188.18 182.436 190.7L176.436 196.7C174.546 199.22 171.921 201.11 168.561 202.37C165.201 203.63 160.861 204.26 155.541 204.26C150.221 204.26 145.881 203.63 142.521 202.37C139.161 201.11 136.536 199.22 134.646 196.7C132.756 194.18 131.461 191.03 130.761 187.25C130.131 183.47 129.816 179.06 129.816 174.02V129.71L135.816 123.71H151.566Z" fill="#F156FF"/>
<path fill-rule="evenodd" clip-rule="evenodd" d="M210.835 203H194.98V129.71L200.98 123.71H229.33C232.9 123.71 236.085 124.27 238.885 125.39C241.685 126.44 244.03 127.98 245.92 130.01C247.88 132.04 249.35 134.49 250.33 137.36C251.31 140.23 251.8 143.45 251.8 147.02C251.8 150.59 251.31 153.81 250.33 156.68C249.35 159.55 247.88 162 245.92 164.03L239.92 170.03C238.03 172.06 235.685 173.635 232.885 174.755C230.085 175.805 226.9 176.33 223.33 176.33H216.835V197L210.835 203ZM225.34 157.625H216.835V142.415H219.34C223.05 142.415 225.605 143.115 227.005 144.515C228.475 145.915 229.21 148.225 229.21 151.445V154.595C229.21 155.596 229.139 156.51 228.997 157.335C227.937 157.528 226.718 157.625 225.34 157.625Z" fill="#F156FF"/>
<path d="M43.4981 31.625V92H27.748V31.625H6.64305V18.71H64.6031V31.625H43.4981ZM74.957 92V80.345H90.707V30.365H74.957V18.71H122.207V30.365H106.457V80.345H122.207V92H74.957ZM175.296 59.345L176.136 38.87H175.191L161.541 76.565L147.891 38.87H146.946L147.786 59.345V92H134.136V18.71H152.721L161.751 43.385H162.591L171.621 18.71H188.946V92H175.296V59.345ZM201.4 92V18.71H248.23V31.625H217.15V48.425H247.18V61.34H217.15V79.085H248.23V92H201.4ZM281.999 14.3H301.949L287.459 48.53H276.014L281.999 14.3ZM349.263 93.26C343.103 93.26 337.748 92.245 333.198 90.215C328.648 88.185 324.973 85.42 322.173 81.92L331.308 71.84C333.968 74.78 336.873 76.95 340.023 78.35C343.243 79.75 346.498 80.45 349.788 80.45C353.568 80.45 356.438 79.61 358.398 77.93C360.358 76.25 361.338 73.835 361.338 70.685C361.338 68.095 360.568 66.135 359.028 64.805C357.558 63.475 355.038 62.53 351.468 61.97L343.803 60.71C337.223 59.59 332.463 57.175 329.523 53.465C326.583 49.685 325.113 45.1 325.113 39.71C325.113 32.64 327.423 27.18 332.043 23.33C336.663 19.41 343.138 17.45 351.468 17.45C357.138 17.45 362.073 18.325 366.273 20.075C370.473 21.825 373.868 24.205 376.458 27.215L367.533 37.19C365.573 35.02 363.263 33.34 360.603 32.15C357.943 30.89 354.933 30.26 351.573 30.26C344.503 30.26 340.968 33.165 340.968 38.975C340.968 41.495 341.738 43.385 343.278 44.645C344.888 45.905 347.478 46.85 351.048 47.48L358.713 48.845C364.663 49.895 369.248 52.135 372.468 55.565C375.688 58.995 377.298 63.615 377.298 69.425C377.298 72.855 376.703 76.04 375.513 78.98C374.323 81.85 372.538 84.37 370.158 86.54C367.778 88.64 364.838 90.285 361.338 91.475C357.908 92.665 353.883 93.26 349.263 93.26ZM151.566 123.71V170.12C151.566 172.43 151.636 174.565 151.776 176.525C151.986 178.415 152.406 180.025 153.036 181.355C153.736 182.685 154.751 183.735 156.081 184.505C157.411 185.205 159.231 185.555 161.541 185.555C163.851 185.555 165.671 185.205 167.001 184.505C168.331 183.735 169.311 182.685 169.941 181.355C170.641 180.025 171.061 178.415 171.201 176.525C171.411 174.565 171.516 172.43 171.516 170.12V123.71H187.266V168.02C187.266 173.06 186.916 177.47 186.216 181.25C185.586 185.03 184.326 188.18 182.436 190.7C180.546 193.22 177.921 195.11 174.561 196.37C171.201 197.63 166.861 198.26 161.541 198.26C156.221 198.26 151.881 197.63 148.521 196.37C145.161 195.11 142.536 193.22 140.646 190.7C138.756 188.18 137.461 185.03 136.761 181.25C136.131 177.47 135.816 173.06 135.816 168.02V123.71H151.566ZM200.98 197V123.71H229.33C232.9 123.71 236.085 124.27 238.885 125.39C241.685 126.44 244.03 127.98 245.92 130.01C247.88 132.04 249.35 134.49 250.33 137.36C251.31 140.23 251.8 143.45 251.8 147.02C251.8 150.59 251.31 153.81 250.33 156.68C249.35 159.55 247.88 162 245.92 164.03C244.03 166.06 241.685 167.635 238.885 168.755C236.085 169.805 232.9 170.33 229.33 170.33H216.835V197H200.98ZM216.835 157.625H225.34C229.05 157.625 231.605 156.925 233.005 155.525C234.475 154.125 235.21 151.815 235.21 148.595V145.445C235.21 142.225 234.475 139.915 233.005 138.515C231.605 137.115 229.05 136.415 225.34 136.415H216.835V157.625Z" fill="white"/>
</svg>
