<svg width="447" height="137" viewBox="0 0 447 137" fill="none" xmlns="http://www.w3.org/2000/svg">
<path d="M175.688 109.59C173.588 111.41 171.068 112.81 168.128 113.79C165.258 114.77 161.933 115.26 158.153 115.26C148.353 115.26 141.073 111.97 136.313 105.39C131.623 98.74 129.278 89.395 129.278 77.355C129.278 65.315 131.623 56.005 136.313 49.425C142.818 40.3373 152.685 33.45 164.153 33.45C167.933 33.45 171.258 33.975 174.128 35.025C177.068 36.005 179.588 37.405 181.688 39.225C183.788 41.045 185.503 43.25 186.833 45.84C188.233 48.43 189.318 51.335 190.088 54.555L184.088 60.555L169.388 64.125C168.968 62.375 168.478 60.765 167.918 59.295C167.358 57.825 166.623 56.565 165.713 55.515C164.873 54.465 163.788 53.66 162.458 53.1C161.198 52.47 159.658 52.155 157.838 52.155C156.423 52.155 155.143 52.3395 153.997 52.7084C152.718 55.8424 152.078 59.9229 152.078 64.95V77.76C152.078 83.64 152.953 88.26 154.703 91.62C156.523 94.91 159.568 96.555 163.838 96.555C165.234 96.555 166.481 96.3902 167.579 96.0605C168.336 94.4492 168.939 92.624 169.388 90.585L175.388 84.585L190.088 88.155C189.318 91.375 188.233 94.28 186.833 96.87C185.503 99.46 183.788 101.7 181.688 103.59C179.511 105.477 177.839 107.655 175.688 109.59Z" fill="#39D720"/>
<path d="M6 34.71H23.535L32.145 71.985L34.5204 83.6302L35.7 77.985L44.415 40.71L50.415 34.71H67.11L47.685 108L41.685 114H19.425L0 40.71L6 34.71Z" fill="#39D720"/>
<path d="M75.889 96.345H85.639V52.365H69.889V40.71L75.889 34.71H123.139V46.365L117.139 52.365H107.389V96.345H123.139V108L117.139 114H69.889V102.345L75.889 96.345Z" fill="#39D720"/>
<path d="M233.307 53.625V108L227.307 114H211.557V53.625H190.452V40.71L196.452 34.71H254.412V47.625L248.412 53.625H233.307Z" fill="#39D720"/>
<path fill-rule="evenodd" clip-rule="evenodd" d="M288.391 33.45C298.191 33.45 305.401 36.775 310.021 43.425C314.711 50.075 317.056 59.385 317.056 71.355C317.056 83.325 314.711 92.635 310.021 99.285C303.699 108.384 293.713 115.26 282.391 115.26C272.591 115.26 265.346 111.935 260.656 105.285C256.036 98.635 253.726 89.325 253.726 77.355C253.726 65.385 256.036 56.075 260.656 49.425C267.079 40.3177 276.97 33.45 288.391 33.45ZM292.359 96.0204C291.188 96.3768 289.865 96.555 288.391 96.555C283.911 96.555 280.796 94.91 279.046 91.62C277.366 88.26 276.526 83.64 276.526 77.76V64.95C276.526 59.9265 277.139 55.8483 278.365 52.7152C279.555 52.3417 280.897 52.155 282.391 52.155C286.871 52.155 289.951 53.835 291.631 57.195C293.381 60.485 294.256 65.07 294.256 70.95V83.655C294.256 88.7124 293.624 92.8342 292.359 96.0204Z" fill="#39D720"/>
<path fill-rule="evenodd" clip-rule="evenodd" d="M375.29 71.355C377.53 67.645 378.65 63.2 378.65 58.02C378.65 54.45 378.16 51.23 377.18 48.36C376.2 45.49 374.73 43.04 372.77 41.01C370.88 38.98 368.535 37.44 365.735 36.39C362.935 35.27 359.75 34.71 356.18 34.71H327.83L321.83 40.71V114H337.37L343.37 108V86.805H344.615L356.9 114H374.12L380.12 108L366.703 80.6767C369.381 78.0139 373.418 74.4551 375.29 71.355ZM356.057 68.3351C354.997 68.5284 353.778 68.625 352.4 68.625H343.37V53.415H346.4C350.11 53.415 352.665 54.115 354.065 55.515C355.535 56.915 356.27 59.225 356.27 62.445V65.595C356.27 66.5964 356.199 67.5098 356.057 68.3351Z" fill="#39D720"/>
<path d="M416.184 114H400.434V88.065L377.229 40.71L383.229 34.71H400.764L408.534 51.72L412.806 62.5594L414.714 57.72L422.484 40.71L428.484 34.71H445.389L422.184 82.065V108L416.184 114Z" fill="#39D720"/>
<path d="M25.425 108L6 34.71H23.535L32.145 71.985L36.45 93.09H37.29L41.7 71.985L50.415 34.71H67.11L47.685 108H25.425ZM75.889 108V96.345H91.639V46.365H75.889V34.71H123.139V46.365H107.389V96.345H123.139V108H75.889ZM164.153 109.26C154.353 109.26 147.073 105.97 142.313 99.39C137.623 92.74 135.278 83.395 135.278 71.355C135.278 59.315 137.623 50.005 142.313 43.425C147.073 36.775 154.353 33.45 164.153 33.45C167.933 33.45 171.258 33.975 174.128 35.025C177.068 36.005 179.588 37.405 181.688 39.225C183.788 41.045 185.503 43.25 186.833 45.84C188.233 48.43 189.318 51.335 190.088 54.555L175.388 58.125C174.968 56.375 174.478 54.765 173.918 53.295C173.358 51.825 172.623 50.565 171.713 49.515C170.873 48.465 169.788 47.66 168.458 47.1C167.198 46.47 165.658 46.155 163.838 46.155C159.568 46.155 156.523 47.835 154.703 51.195C152.953 54.485 152.078 59.07 152.078 64.95V77.76C152.078 83.64 152.953 88.26 154.703 91.62C156.523 94.91 159.568 96.555 163.838 96.555C167.478 96.555 170.103 95.435 171.713 93.195C173.393 90.955 174.618 88.085 175.388 84.585L190.088 88.155C189.318 91.375 188.233 94.28 186.833 96.87C185.503 99.46 183.788 101.7 181.688 103.59C179.588 105.41 177.068 106.81 174.128 107.79C171.258 108.77 167.933 109.26 164.153 109.26ZM233.307 47.625V108H217.557V47.625H196.452V34.71H254.412V47.625H233.307ZM288.391 109.26C278.591 109.26 271.346 105.935 266.656 99.285C262.036 92.635 259.726 83.325 259.726 71.355C259.726 59.385 262.036 50.075 266.656 43.425C271.346 36.775 278.591 33.45 288.391 33.45C298.191 33.45 305.401 36.775 310.021 43.425C314.711 50.075 317.056 59.385 317.056 71.355C317.056 83.325 314.711 92.635 310.021 99.285C305.401 105.935 298.191 109.26 288.391 109.26ZM288.391 96.555C292.871 96.555 295.951 94.91 297.631 91.62C299.381 88.26 300.256 83.605 300.256 77.655V64.95C300.256 59.07 299.381 54.485 297.631 51.195C295.951 47.835 292.871 46.155 288.391 46.155C283.911 46.155 280.796 47.835 279.046 51.195C277.366 54.485 276.526 59.07 276.526 64.95V77.76C276.526 83.64 277.366 88.26 279.046 91.62C280.796 94.91 283.911 96.555 288.391 96.555ZM343.37 108H327.83V34.71H356.18C359.75 34.71 362.935 35.27 365.735 36.39C368.535 37.44 370.88 38.98 372.77 41.01C374.73 43.04 376.2 45.49 377.18 48.36C378.16 51.23 378.65 54.45 378.65 58.02C378.65 63.2 377.53 67.645 375.29 71.355C373.05 75.065 369.865 77.515 365.735 78.705L380.12 108H362.9L350.615 80.805H343.37V108ZM352.4 68.625C356.11 68.625 358.665 67.925 360.065 66.525C361.535 65.125 362.27 62.815 362.27 59.595V56.445C362.27 53.225 361.535 50.915 360.065 49.515C358.665 48.115 356.11 47.415 352.4 47.415H343.37V68.625H352.4ZM406.434 108V82.065L383.229 34.71H400.764L408.534 51.72L414.204 66.105H415.044L420.714 51.72L428.484 34.71H445.389L422.184 82.065V108H406.434Z" fill="white"/>
</svg>
